<?xml version="1.0" encoding="UTF-8"?>
<svg xmlns="http://www.w3.org/2000/svg" xmlns:xlink="http://www.w3.org/1999/xlink" width="32px" height="32px" viewBox="0 0 32 32" version="1.1">
<defs>
<linearGradient id="linear0" gradientUnits="userSpaceOnUse" x1="32" y1="9.083" x2="32" y2="54.675999" spreadMethod="reflect" gradientTransform="matrix(0.5,0,0,0.5,0,0)">
<stop offset="0" style="stop-color:rgb(10.196078%,42.745098%,100%);stop-opacity:1;"/>
<stop offset="1" style="stop-color:rgb(78.431373%,13.333333%,100%);stop-opacity:1;"/>
</linearGradient>
<linearGradient id="linear1" gradientUnits="userSpaceOnUse" x1="32" y1="19" x2="32" y2="45" spreadMethod="reflect" gradientTransform="matrix(0.5,0,0,0.5,0,0)">
<stop offset="0" style="stop-color:rgb(42.745098%,78.039216%,100%);stop-opacity:1;"/>
<stop offset="1" style="stop-color:rgb(90.196078%,67.058824%,100%);stop-opacity:1;"/>
</linearGradient>
</defs>
<g id="surface1">
<path style=" stroke:none;fill-rule:nonzero;fill:url(#linear0);" d="M 25 27.5 L 7 27.5 C 5.621094 27.5 4.5 26.378906 4.5 25 L 4.5 7 C 4.5 5.621094 5.621094 4.5 7 4.5 L 25 4.5 C 26.378906 4.5 27.5 5.621094 27.5 7 L 27.5 25 C 27.5 26.378906 26.378906 27.5 25 27.5 Z M 7 5.5 C 6.171875 5.5 5.5 6.171875 5.5 7 L 5.5 25 C 5.5 25.828125 6.171875 26.5 7 26.5 L 25 26.5 C 25.828125 26.5 26.5 25.828125 26.5 25 L 26.5 7 C 26.5 6.171875 25.828125 5.5 25 5.5 Z M 7 5.5 "/>
<path style=" stroke:none;fill-rule:nonzero;fill:url(#linear1);" d="M 21.5 14.5 L 21 14.5 C 20.445312 14.5 20 14.050781 20 13.5 C 20 11.300781 18.199219 9.5 16 9.5 L 13.5 9.5 C 11.300781 9.5 9.5 11.300781 9.5 13.5 L 9.5 18.5 C 9.5 20.699219 11.300781 22.5 13.5 22.5 L 18.5 22.5 C 20.699219 22.5 22.5 20.699219 22.5 18.5 L 22.5 15.5 C 22.5 14.949219 22.050781 14.5 21.5 14.5 Z M 13.5 12.5 L 16 12.5 C 16.550781 12.5 17 12.949219 17 13.5 C 17 14.050781 16.550781 14.5 16 14.5 L 13.5 14.5 C 12.949219 14.5 12.5 14.050781 12.5 13.5 C 12.5 12.949219 12.949219 12.5 13.5 12.5 Z M 18.5 19.5 L 13.5 19.5 C 12.949219 19.5 12.5 19.050781 12.5 18.5 C 12.5 17.949219 12.949219 17.5 13.5 17.5 L 18.5 17.5 C 19.050781 17.5 19.5 17.949219 19.5 18.5 C 19.5 19.050781 19.050781 19.5 18.5 19.5 Z M 18.5 19.5 "/>
</g>
</svg>
